<svg width="32" height="32" viewBox="0 0 32 32" fill="none" xmlns="http://www.w3.org/2000/svg">
<path fill-rule="evenodd" clip-rule="evenodd" d="M11.8353 24.3307C10.9161 24.3307 10.1686 23.5832 10.1686 22.6641V12.6641H8.50195V10.9974H11.002H11.8353V9.33073C11.8353 8.41156 12.5828 7.66406 13.502 7.66406H18.502C19.4211 7.66406 20.1686 8.41156 20.1686 9.33073V10.9974H21.002H23.502V12.6641H21.8353V22.6641C21.8353 23.5832 21.0878 24.3307 20.1686 24.3307H11.8353ZM18.502 9.33073H13.502V10.9974H18.502V9.33073ZM19.3353 12.6641H12.6686H11.8353V22.6641H20.1695L20.1686 12.6641H19.3353ZM15.1686 14.3307H13.502V20.9974H15.1686V14.3307ZM18.502 14.3307H16.8353V20.9974H18.502V14.3307Z" fill="#595959"/>
</svg>